<svg width="2331" height="2331" viewBox="0 0 2331 2331" fill="none" xmlns="http://www.w3.org/2000/svg">
<path d="M2082 1081.53C2082 1586.94 1385.95 2113 1170.19 2113C1076.38 2113 249 1803.28 249 1081.53C249 502.912 820.757 219 1170.19 219C1603.11 219 2082 633.371 2082 1081.53Z" fill="#FF8C42"/>
<path d="M1091 1146.91C1091 1354.84 994.228 1521 832.628 1521C671.027 1521 382 1272.23 382 1065.71C382 881.712 573.962 793 735.562 793C933.444 793 1091 938.975 1091 1146.91Z" fill="#1E1E1E"/>
<path d="M1260 1146.91C1260 1354.84 1356.91 1521 1518.74 1521C1680.56 1521 1970 1272.23 1970 1065.71C1970 881.712 1777.77 793 1615.94 793C1417.78 793 1260 938.975 1260 1146.91Z" fill="#1E1E1E"/>
<path d="M736 1093.42C736 1162.83 648.565 1224 594.96 1224C541.356 1224 507 1172.9 507 1119.23C507 1065.57 556.476 970 638.875 970C692.48 970 736 1018.08 736 1093.42Z" fill="#FFF6F1"/>
<path d="M1171.13 1894H1122.79L1095.56 1885.03L1055.2 1869.45L1020.94 1851.51L987.294 1821.77L974 1798.16V1762.75L987.294 1734.38L1009.67 1718.37H1038.77L1067.13 1728.21L1088.62 1749.82L1110.58 1775.03C1110.58 1775.03 1125.47 1785.83 1136.4 1789.66C1156.65 1796.75 1191.31 1789.66 1191.31 1789.66L1207.27 1779.98L1223.23 1770.3L1250.92 1740.09L1269.7 1723.09C1269.7 1723.09 1274.23 1719.1 1288.47 1716.01C1302.71 1712.92 1314.76 1717.9 1314.76 1717.9C1314.76 1717.9 1315.23 1717.9 1334.47 1729.7C1353.71 1741.5 1349.49 1740.09 1349.49 1740.09C1349.49 1740.09 1357 1751.28 1357 1761.33V1778.8L1355.12 1792.97L1342.92 1817.52L1322.74 1837.35L1296.92 1854.81L1269.7 1872.28L1241.07 1885.03L1217.13 1894H1171.13Z" fill="#1E1E1E"/>
<path d="M1615 1093.42C1615 1162.83 1527.18 1224 1473.34 1224C1419.51 1224 1385 1172.9 1385 1119.23C1385 1065.57 1434.69 970 1517.45 970C1571.29 970 1615 1018.08 1615 1093.42Z" fill="#FFF6F1"/>
</svg>
